<mxfile host="app.diagrams.net" modified="2024-05-23T00:07:53.429Z" agent="Mozilla/5.0 (Macintosh; Intel Mac OS X 10_15_7) AppleWebKit/537.36 (KHTML, like Gecko) Chrome/124.0.0.0 Safari/537.36" etag="oTbelFxyu7vu1FhK3B92" version="24.4.6" type="google" pages="2">
  <diagram name="1" id="FQ09DZRYIcDzGLGnqr8i">
    <mxGraphModel grid="1" page="1" gridSize="10" guides="1" tooltips="1" connect="1" arrows="1" fold="1" pageScale="1" pageWidth="827" pageHeight="1169" math="0" shadow="0">
      <root>
        <mxCell id="0" />
        <mxCell id="1" parent="0" />
        <mxCell id="Tz-0HIOmYIdFmNYr6--X-19" style="edgeStyle=orthogonalEdgeStyle;rounded=0;orthogonalLoop=1;jettySize=auto;html=1;exitX=0;exitY=0.5;exitDx=0;exitDy=0;entryX=0.5;entryY=0;entryDx=0;entryDy=0;" edge="1" parent="1" source="Tz-0HIOmYIdFmNYr6--X-1" target="Tz-0HIOmYIdFmNYr6--X-2">
          <mxGeometry relative="1" as="geometry" />
        </mxCell>
        <mxCell id="Tz-0HIOmYIdFmNYr6--X-20" style="edgeStyle=orthogonalEdgeStyle;rounded=0;orthogonalLoop=1;jettySize=auto;html=1;exitX=0.5;exitY=1;exitDx=0;exitDy=0;entryX=0.5;entryY=0;entryDx=0;entryDy=0;" edge="1" parent="1" source="Tz-0HIOmYIdFmNYr6--X-1" target="Tz-0HIOmYIdFmNYr6--X-3">
          <mxGeometry relative="1" as="geometry" />
        </mxCell>
        <mxCell id="Tz-0HIOmYIdFmNYr6--X-21" style="edgeStyle=orthogonalEdgeStyle;rounded=0;orthogonalLoop=1;jettySize=auto;html=1;exitX=1;exitY=0.5;exitDx=0;exitDy=0;entryX=0.5;entryY=0;entryDx=0;entryDy=0;" edge="1" parent="1" source="Tz-0HIOmYIdFmNYr6--X-1" target="Tz-0HIOmYIdFmNYr6--X-4">
          <mxGeometry relative="1" as="geometry" />
        </mxCell>
        <mxCell id="Tz-0HIOmYIdFmNYr6--X-1" value="Gerencia general" style="rounded=0;whiteSpace=wrap;html=1;" vertex="1" parent="1">
          <mxGeometry x="350" y="240" width="120" height="60" as="geometry" />
        </mxCell>
        <mxCell id="Tz-0HIOmYIdFmNYr6--X-23" style="edgeStyle=orthogonalEdgeStyle;rounded=0;orthogonalLoop=1;jettySize=auto;html=1;exitX=0;exitY=0.5;exitDx=0;exitDy=0;entryX=0.5;entryY=0;entryDx=0;entryDy=0;" edge="1" parent="1" source="Tz-0HIOmYIdFmNYr6--X-2" target="Tz-0HIOmYIdFmNYr6--X-12">
          <mxGeometry relative="1" as="geometry">
            <mxPoint x="-60" y="370" as="targetPoint" />
          </mxGeometry>
        </mxCell>
        <mxCell id="Tz-0HIOmYIdFmNYr6--X-25" style="edgeStyle=orthogonalEdgeStyle;rounded=0;orthogonalLoop=1;jettySize=auto;html=1;exitX=1;exitY=0.5;exitDx=0;exitDy=0;entryX=0.5;entryY=0;entryDx=0;entryDy=0;" edge="1" parent="1" source="Tz-0HIOmYIdFmNYr6--X-2" target="Tz-0HIOmYIdFmNYr6--X-14">
          <mxGeometry relative="1" as="geometry">
            <mxPoint x="219.99999999999955" y="370" as="targetPoint" />
          </mxGeometry>
        </mxCell>
        <mxCell id="WRrCMtDS-G6p9xdSO97j-1" style="edgeStyle=orthogonalEdgeStyle;rounded=0;orthogonalLoop=1;jettySize=auto;html=1;exitX=0.5;exitY=1;exitDx=0;exitDy=0;entryX=0.5;entryY=0;entryDx=0;entryDy=0;" edge="1" parent="1" source="Tz-0HIOmYIdFmNYr6--X-2" target="Tz-0HIOmYIdFmNYr6--X-13">
          <mxGeometry relative="1" as="geometry" />
        </mxCell>
        <mxCell id="Tz-0HIOmYIdFmNYr6--X-2" value="Producción" style="rounded=0;whiteSpace=wrap;html=1;" vertex="1" parent="1">
          <mxGeometry x="20" y="360" width="120" height="60" as="geometry" />
        </mxCell>
        <mxCell id="Tz-0HIOmYIdFmNYr6--X-29" style="edgeStyle=orthogonalEdgeStyle;rounded=0;orthogonalLoop=1;jettySize=auto;html=1;exitX=0.5;exitY=1;exitDx=0;exitDy=0;entryX=0.5;entryY=0;entryDx=0;entryDy=0;" edge="1" parent="1" source="Tz-0HIOmYIdFmNYr6--X-3" target="Tz-0HIOmYIdFmNYr6--X-10">
          <mxGeometry relative="1" as="geometry" />
        </mxCell>
        <mxCell id="Tz-0HIOmYIdFmNYr6--X-3" value="Comercialización" style="rounded=0;whiteSpace=wrap;html=1;" vertex="1" parent="1">
          <mxGeometry x="350" y="360" width="120" height="60" as="geometry" />
        </mxCell>
        <mxCell id="Tz-0HIOmYIdFmNYr6--X-18" style="edgeStyle=orthogonalEdgeStyle;rounded=0;orthogonalLoop=1;jettySize=auto;html=1;exitX=0.5;exitY=1;exitDx=0;exitDy=0;entryX=0.5;entryY=0;entryDx=0;entryDy=0;" edge="1" parent="1" source="Tz-0HIOmYIdFmNYr6--X-4" target="Tz-0HIOmYIdFmNYr6--X-11">
          <mxGeometry relative="1" as="geometry" />
        </mxCell>
        <mxCell id="Tz-0HIOmYIdFmNYr6--X-4" value="Administración-Finanzas" style="rounded=0;whiteSpace=wrap;html=1;" vertex="1" parent="1">
          <mxGeometry x="580" y="360" width="120" height="60" as="geometry" />
        </mxCell>
        <mxCell id="Tz-0HIOmYIdFmNYr6--X-10" value="&lt;div&gt;3&lt;/div&gt;&lt;div&gt;asistentes&lt;/div&gt;" style="rounded=0;whiteSpace=wrap;html=1;" vertex="1" parent="1">
          <mxGeometry x="350" y="460" width="120" height="60" as="geometry" />
        </mxCell>
        <mxCell id="Tz-0HIOmYIdFmNYr6--X-11" value="7&lt;div&gt;asistentes&lt;/div&gt;" style="rounded=0;whiteSpace=wrap;html=1;" vertex="1" parent="1">
          <mxGeometry x="580" y="460" width="120" height="60" as="geometry" />
        </mxCell>
        <mxCell id="Tz-0HIOmYIdFmNYr6--X-12" value="1&lt;div&gt;Ing. agrónomo&lt;/div&gt;" style="rounded=0;whiteSpace=wrap;html=1;" vertex="1" parent="1">
          <mxGeometry x="-120" y="460" width="120" height="60" as="geometry" />
        </mxCell>
        <mxCell id="Tz-0HIOmYIdFmNYr6--X-13" value="1&lt;div&gt;Ing. agrónomo&lt;/div&gt;" style="rounded=0;whiteSpace=wrap;html=1;" vertex="1" parent="1">
          <mxGeometry x="20" y="460" width="120" height="60" as="geometry" />
        </mxCell>
        <mxCell id="Tz-0HIOmYIdFmNYr6--X-14" value="1&lt;div&gt;Ing. agrónomo&lt;/div&gt;" style="rounded=0;whiteSpace=wrap;html=1;" vertex="1" parent="1">
          <mxGeometry x="160" y="460" width="120" height="60" as="geometry" />
        </mxCell>
        <mxCell id="Tz-0HIOmYIdFmNYr6--X-33" value="" style="endArrow=none;html=1;rounded=0;" edge="1" parent="1">
          <mxGeometry width="50" height="50" relative="1" as="geometry">
            <mxPoint x="-170" y="340" as="sourcePoint" />
            <mxPoint x="800" y="340" as="targetPoint" />
          </mxGeometry>
        </mxCell>
        <mxCell id="Tz-0HIOmYIdFmNYr6--X-34" value="" style="endArrow=none;html=1;rounded=0;" edge="1" parent="1">
          <mxGeometry width="50" height="50" relative="1" as="geometry">
            <mxPoint x="-170" y="440" as="sourcePoint" />
            <mxPoint x="790" y="440" as="targetPoint" />
          </mxGeometry>
        </mxCell>
        <mxCell id="Tz-0HIOmYIdFmNYr6--X-36" value="&lt;font style=&quot;font-size: 20px;&quot;&gt;III&lt;/font&gt;" style="text;html=1;align=center;verticalAlign=middle;resizable=0;points=[];autosize=1;strokeColor=none;fillColor=none;" vertex="1" parent="1">
          <mxGeometry x="-210" y="280" width="40" height="40" as="geometry" />
        </mxCell>
        <mxCell id="Tz-0HIOmYIdFmNYr6--X-38" value="&lt;font style=&quot;font-size: 20px;&quot;&gt;I&lt;/font&gt;" style="text;html=1;align=center;verticalAlign=middle;resizable=0;points=[];autosize=1;strokeColor=none;fillColor=none;" vertex="1" parent="1">
          <mxGeometry x="-205" y="460" width="30" height="40" as="geometry" />
        </mxCell>
        <mxCell id="L6zmHRZp7wienSTNg3k6-1" value="&lt;font style=&quot;font-size: 20px;&quot;&gt;II&lt;/font&gt;" style="text;html=1;align=center;verticalAlign=middle;resizable=0;points=[];autosize=1;strokeColor=none;fillColor=none;" vertex="1" parent="1">
          <mxGeometry x="-205" y="380" width="30" height="40" as="geometry" />
        </mxCell>
      </root>
    </mxGraphModel>
  </diagram>
  <diagram id="COwvf5TJjpxPgarO-MN8" name="2">
    <mxGraphModel grid="1" page="1" gridSize="10" guides="1" tooltips="1" connect="1" arrows="1" fold="1" pageScale="1" pageWidth="827" pageHeight="1169" math="0" shadow="0">
      <root>
        <mxCell id="0" />
        <mxCell id="1" parent="0" />
        <mxCell id="wIrLU4P4eJfVCOrdQ-WT-1" value="Gerencia&lt;div&gt;general&lt;/div&gt;" style="rounded=0;whiteSpace=wrap;html=1;" vertex="1" parent="1">
          <mxGeometry x="370" y="40" width="120" height="60" as="geometry" />
        </mxCell>
        <mxCell id="Ak5imzYSAIkzyVOLl6xR-1" value="Argentina" style="rounded=0;whiteSpace=wrap;html=1;" vertex="1" parent="1">
          <mxGeometry x="90" y="130" width="120" height="60" as="geometry" />
        </mxCell>
        <mxCell id="Ak5imzYSAIkzyVOLl6xR-2" value="Uruguay" style="rounded=0;whiteSpace=wrap;html=1;" vertex="1" parent="1">
          <mxGeometry x="280" y="130" width="120" height="60" as="geometry" />
        </mxCell>
        <mxCell id="Ak5imzYSAIkzyVOLl6xR-3" value="Brasil" style="rounded=0;whiteSpace=wrap;html=1;" vertex="1" parent="1">
          <mxGeometry x="470" y="130" width="120" height="60" as="geometry" />
        </mxCell>
        <mxCell id="Ak5imzYSAIkzyVOLl6xR-4" value="" style="rounded=0;whiteSpace=wrap;html=1;" vertex="1" parent="1">
          <mxGeometry x="650" y="130" width="120" height="60" as="geometry" />
        </mxCell>
      </root>
    </mxGraphModel>
  </diagram>
</mxfile>
